<svg xmlns="http://www.w3.org/2000/svg" viewBox="0 0 24 24" fill="#000000" id="Hexagon-Letter-V--Streamline-Tabler-Filled" height="24" width="24">
  <desc>
    Hexagon Letter V Streamline Icon: https://streamlinehq.com
  </desc>
  <path d="m13.666 1.429 6.75 3.98 0.096 0.063 0.093 0.078 0.106 0.074a3.22 3.22 0 0 1 1.284 2.39l0.005 0.204v7.284c0 1.175 -0.643 2.256 -1.623 2.793l-6.804 4.302c-0.98 0.538 -2.166 0.538 -3.2 -0.032l-6.695 -4.237A3.23 3.23 0 0 1 2 15.502V8.217c0 -1.106 0.57 -2.128 1.476 -2.705l6.95 -4.098c1 -0.552 2.214 -0.552 3.24 0.015m0.577 5.6a1 1 0 0 0 -1.213 0.728L12 11.875l-1.03 -4.118a1 1 0 1 0 -1.94 0.486l2 8c0.252 1.01 1.688 1.01 1.94 0l2 -8a1 1 0 0 0 -0.727 -1.213" stroke-width="1"></path>
</svg>